<svg width="548" height="724" viewBox="0 0 548 724" fill="none" xmlns="http://www.w3.org/2000/svg">
<path d="M1010.58 618.417H980.417V58.825C980.417 43.7417 966.842 30.1667 951.758 30.1667H140.275C125.192 30.1667 105.583 43.7417 105.583 52.7917V618.417H75.4167V52.7917C75.4167 21.1167 114.633 0 140.275 0H951.758C983.433 0 1010.58 27.15 1010.58 58.825V618.417Z" fill="white" fill-opacity="0.5"/>
<path d="M1000.03 724H85.975C39.2167 724 0 683.275 0 636.517V618.417H1086V636.517C1086 683.275 1046.78 724 1000.03 724ZM31.675 648.584C37.7083 674.225 60.3333 693.834 85.975 693.834H1001.53C1027.18 693.834 1049.8 674.225 1055.83 648.584H31.675Z" fill="white" fill-opacity="0.5"/>
<path d="M950.25 648.583H135.75V60.3335H950.25V648.583ZM165.917 618.417H920.083V90.5002H165.917V618.417Z" fill="white" fill-opacity="0.5"/>
<path d="M558.083 30.1665H527.917V60.3332H558.083V30.1665Z" fill="white" fill-opacity="0.5"/>
<path d="M633.5 648.583H452.5V678.75H633.5V648.583Z" fill="white" fill-opacity="0.5"/>
</svg>
