<svg width="111" height="22" viewBox="0 0 111 22" fill="none" xmlns="http://www.w3.org/2000/svg">
<path d="M8.28448 9.93118C9.267 9.93151 10.2399 9.73821 11.1478 9.36232C12.0556 8.98642 12.8805 8.43531 13.5754 7.74045C14.2702 7.04558 14.8215 6.22059 15.1975 5.31258C15.5736 4.40457 15.7672 3.43134 15.7672 2.44849H8.28448V9.93118Z" fill="#7557D3"/>
<path d="M0 10.7329C-5.54313e-08 11.7158 0.193571 12.689 0.569642 13.597C0.945713 14.505 1.4969 15.33 2.19176 16.0249C2.88663 16.7197 3.71154 17.2708 4.61937 17.6467C5.52719 18.0226 6.50017 18.2159 7.4827 18.2156V10.7329H0Z" fill="#7557D3"/>
<path d="M8.28448 10.7329V18.2156H15.7672C15.7672 17.2328 15.5736 16.2595 15.1975 15.3515C14.8215 14.4435 14.2702 13.6185 13.5754 12.9236C12.8805 12.2288 12.0556 11.6777 11.1478 11.3018C10.2399 10.9259 9.267 10.7326 8.28448 10.7329Z" fill="#7557D3"/>
<path d="M0 9.93118H7.4827V2.44849C6.50017 2.44816 5.52719 2.64146 4.61937 3.01735C3.71154 3.39325 2.88663 3.94436 2.19176 4.63922C1.4969 5.33409 0.945713 6.1591 0.569642 7.06711C0.193571 7.97511 -5.54312e-08 8.94833 0 9.93118Z" fill="#7557D3"/>
<path d="M16.5688 2.44849C16.5688 4.43302 17.3572 6.33628 18.7604 7.73956C20.1637 9.14283 22.067 9.93118 24.0515 9.93118V2.44849H16.5688Z" fill="#7557D3"/>
<path d="M16.5688 18.2156H24.0515V10.7329C22.067 10.7329 20.1637 11.5213 18.7604 12.9245C17.3572 14.3278 16.5688 16.2311 16.5688 18.2156Z" fill="#7557D3"/>
<path d="M35.7689 15.0067C37.6532 15.0067 38.9891 14.3392 40.2973 13.0587L41.8822 14.5848C40.4155 16.2475 38.5715 17.4138 35.8067 17.4138C31.3261 17.4138 28.3273 14.3392 28.3273 10.4656C28.3273 6.59192 31.4192 3.51733 35.5475 3.51733C39.6105 3.51733 42.491 6.5274 42.491 10.2025C42.4896 10.5897 42.4466 10.9757 42.3627 11.3539H31.3412C31.628 13.4707 33.3941 15.0067 35.7689 15.0067ZM31.4343 9.14042H39.4168C39.0419 7.28425 37.535 5.93929 35.535 5.93929C34.5873 5.94506 33.6689 6.2633 32.9258 6.84338C32.1827 7.42346 31.6577 8.23203 31.4343 9.14042Z" fill="#7557D3"/>
<path d="M56.6547 8.93167V17.1465H53.727V9.18061C53.727 7.38081 52.5081 6.12368 50.742 6.12368C48.9187 6.12368 47.3019 7.63971 47.3019 9.81042V17.1465H44.3617V3.82601H47.3019V5.59843C47.763 4.95614 48.3698 4.43256 49.0725 4.07077C49.7753 3.70897 50.5538 3.51929 51.344 3.51733C54.5404 3.51733 56.6547 5.65071 56.6547 8.93167Z" fill="#7557D3"/>
<path d="M67.2194 3.78442L63.7228 13.3796L60.2562 3.78442H57.1892L62.2417 17.1039L60.6658 21.4222H63.6004L70.2839 3.78442H67.2194Z" fill="#7557D3"/>
<path d="M76.5493 3.51805C77.4414 3.5044 78.3254 3.68694 79.1378 4.05253C79.9502 4.41812 80.6709 4.95769 81.248 5.63247V3.82578H84.1804V17.1054H81.248V15.3136C80.6677 15.9837 79.9461 16.519 79.1341 16.8818C78.3222 17.2447 77.4398 17.426 76.5493 17.4131C72.7789 17.4131 70.0167 14.3383 70.0167 10.4643C70.0167 6.5904 72.7789 3.51805 76.5493 3.51805ZM77.1298 14.7999C79.4791 14.7999 81.248 12.879 81.248 10.4594C81.248 8.03971 79.4967 6.11887 77.1298 6.11887C74.7629 6.11887 72.999 8.05212 72.999 10.4594C72.999 12.8666 74.7804 14.7999 77.1298 14.7999Z" fill="#7557D3"/>
<path d="M107.117 3.82574V5.62961C106.529 4.95549 105.794 4.41658 104.966 4.05151C104.137 3.68644 103.237 3.50427 102.328 3.51806C98.4859 3.51806 95.6716 6.60474 95.6716 10.4656C95.6716 14.3264 98.4757 17.4131 102.328 17.4131C103.235 17.4264 104.135 17.245 104.963 16.8818C105.791 16.5186 106.526 15.9825 107.117 15.3115V17.1029H110.103V3.82574H107.117ZM102.922 14.7979C100.525 14.7979 98.7103 12.8773 98.7103 10.4581C98.7103 8.0389 100.495 6.11841 102.922 6.11841C105.348 6.11841 107.117 8.05131 107.117 10.4581C107.117 12.8649 105.315 14.7979 102.922 14.7979Z" fill="#7557D3"/>
<path d="M94.8699 15.1839V14.8496H93.617C91.9331 14.8496 91.2866 14.1413 91.2866 12.6622V6.3418H94.702V3.76775H91.2966V0.577637H88.3497V3.77025H85.7838V6.3443H88.3573V12.7944C88.3573 15.9072 89.9084 17.4137 92.7274 17.4137C92.8126 17.4137 92.9003 17.4137 92.978 17.4137H94.8674V15.1864L94.8699 15.1839Z" fill="#7557D3"/>
</svg>
