<svg width="7" height="6" viewBox="0 0 7 6" fill="none" xmlns="http://www.w3.org/2000/svg">
<path d="M0.233032 1.37407L3.33058 5.13141C3.41863 5.23876 3.58268 5.23876 3.67194 5.13141L6.76948 1.37407C6.88769 1.23053 6.78637 1.01221 6.59941 1.01221H0.403107C0.216145 1.01221 0.113617 1.22932 0.233032 1.37407Z" fill="white"/>
<path d="M0.104984 1.50185C0.183388 1.59714 0.261792 1.69243 0.341402 1.78772C0.538014 2.02655 0.735832 2.26538 0.932444 2.50421C1.18575 2.81179 1.43905 3.11817 1.69236 3.42576C1.94325 3.72972 2.19293 4.03368 2.44382 4.33644C2.63199 4.56442 2.82016 4.79239 3.00833 5.02157C3.11327 5.14943 3.21942 5.32192 3.38587 5.37378C3.54992 5.42444 3.71758 5.3569 3.82252 5.23024C3.86595 5.17717 3.90937 5.1253 3.95279 5.07223C4.13011 4.85632 4.30862 4.64041 4.48594 4.4257C4.732 4.12656 4.97928 3.82742 5.22534 3.52828C5.48106 3.21829 5.73678 2.90708 5.99249 2.59709C6.19875 2.3474 6.40502 2.09772 6.61128 1.84683C6.70536 1.73224 6.80065 1.62006 6.89353 1.50426C6.95987 1.42224 7.0045 1.32936 6.99968 1.22201C6.99244 1.0459 6.87061 0.885478 6.69812 0.84326C6.64264 0.829992 6.58957 0.831198 6.53287 0.831198C6.35194 0.831198 6.17101 0.831198 5.98887 0.831198C5.67405 0.831198 5.35923 0.831198 5.04441 0.831198C4.6536 0.831198 4.26279 0.831198 3.87318 0.831198C3.46548 0.831198 3.05658 0.831198 2.64888 0.831198C2.27978 0.831198 1.91068 0.831198 1.54158 0.831198C1.2738 0.831198 1.00482 0.831198 0.737038 0.831198C0.626067 0.831198 0.515096 0.827579 0.404124 0.831198C0.26541 0.834817 0.145995 0.898746 0.0675919 1.01334C-0.0228738 1.14481 -0.0216676 1.33781 0.0772416 1.46566C0.136346 1.54286 0.232843 1.58387 0.324514 1.5308C0.400506 1.48617 0.44996 1.36072 0.38965 1.28353C0.381206 1.27146 0.373969 1.25699 0.364319 1.24613C0.366732 1.24855 0.371557 1.27508 0.367938 1.25699C0.366732 1.25096 0.364319 1.24372 0.361907 1.23648C0.353464 1.20874 0.357082 1.2594 0.363113 1.23045C0.364319 1.22563 0.367938 1.20392 0.363113 1.22804C0.355876 1.25578 0.365526 1.22201 0.366732 1.2196C0.377588 1.20392 0.361907 1.22925 0.360701 1.23166C0.364319 1.22563 0.366732 1.2196 0.37035 1.21357C0.373969 1.20754 0.377588 1.20271 0.381206 1.19668C0.377588 1.20271 0.371557 1.2208 0.373969 1.20754C0.375175 1.20392 0.386031 1.19668 0.388444 1.19306C0.383619 1.19789 0.372763 1.21357 0.378794 1.2015C0.381206 1.19789 0.393268 1.19427 0.396887 1.19186C0.386031 1.19909 0.372763 1.2015 0.393268 1.19547C0.423424 1.18582 0.370351 1.19306 0.404124 1.19427C0.405331 1.19427 0.405331 1.19427 0.406537 1.19427C0.410155 1.19427 0.41498 1.19427 0.418599 1.19427C0.464435 1.19427 0.511477 1.19427 0.557313 1.19427C0.770812 1.19427 0.985517 1.19427 1.19902 1.19427C1.52711 1.19427 1.85519 1.19427 2.18328 1.19427C2.57409 1.19427 2.96491 1.19427 3.35572 1.19427C3.75377 1.19427 4.15061 1.19427 4.54866 1.19427C4.89725 1.19427 5.24706 1.19427 5.59565 1.19427C5.84172 1.19427 6.08778 1.19427 6.33385 1.19427C6.40019 1.19427 6.46774 1.19427 6.53408 1.19427C6.55097 1.19427 6.56785 1.19427 6.58353 1.19427C6.58715 1.19427 6.59077 1.19427 6.5956 1.19427C6.5968 1.19427 6.5968 1.19427 6.59801 1.19427C6.60283 1.19427 6.60886 1.19547 6.61369 1.19427C6.57268 1.19547 6.63178 1.20271 6.61369 1.19547C6.58595 1.18462 6.64626 1.21719 6.62093 1.19909C6.5956 1.181 6.64746 1.22804 6.62696 1.20392C6.61128 1.18582 6.6342 1.2196 6.63781 1.22442C6.64867 1.2389 6.63299 1.21598 6.63299 1.21236C6.6342 1.2196 6.63661 1.23166 6.64023 1.23769C6.64023 1.23769 6.63661 1.2015 6.63781 1.22322C6.63781 1.22925 6.63661 1.23769 6.63781 1.24372C6.63661 1.2401 6.64746 1.21115 6.64023 1.22925C6.63781 1.23528 6.63661 1.24372 6.6354 1.24975C6.6342 1.25458 6.62455 1.27267 6.6342 1.25458C6.64505 1.23407 6.63058 1.25578 6.63058 1.2582C6.63058 1.26543 6.60645 1.28353 6.63178 1.2582C6.69812 1.19306 6.64385 1.24372 6.64143 1.24613C6.6342 1.25217 6.62937 1.26181 6.62334 1.26905C6.58354 1.3173 6.54252 1.36676 6.50272 1.415C6.33385 1.61885 6.16619 1.82391 5.99732 2.02776C5.75849 2.31725 5.51966 2.60674 5.28083 2.89743C5.02873 3.20381 4.77543 3.51019 4.52333 3.81657C4.31345 4.07108 4.10357 4.32559 3.89369 4.5801C3.78272 4.71399 3.67295 4.84908 3.56198 4.98297C3.55595 4.99021 3.55112 4.99624 3.54509 5.00348C3.53786 5.01192 3.53062 5.01916 3.52218 5.0276C3.54268 5.0083 3.51856 5.02881 3.50649 5.03484C3.53424 5.02157 3.50529 5.03243 3.49202 5.03484C3.49443 5.03484 3.52338 5.03122 3.50288 5.03122C3.47513 5.03122 3.53303 5.03363 3.50529 5.03363C3.49805 5.03363 3.48961 5.03001 3.48358 5.0276C3.48599 5.0276 3.51132 5.03966 3.49081 5.03122C3.48358 5.0276 3.47755 5.02398 3.47031 5.01916C3.47393 5.02157 3.48961 5.03725 3.47634 5.02278C3.47031 5.01674 3.46428 5.01071 3.45945 5.00348C3.43533 4.97573 3.41241 4.94558 3.38829 4.91663C3.24354 4.74052 3.09759 4.56442 2.95284 4.38831C2.72487 4.11209 2.4969 3.83466 2.26892 3.55844C2.01441 3.24965 1.7599 2.94086 1.50539 2.63207C1.28104 2.35947 1.05668 2.08807 0.832329 1.81547C0.694821 1.6478 0.557313 1.48134 0.418599 1.31368C0.399299 1.29076 0.381206 1.26785 0.361907 1.24493C0.299184 1.16894 0.17012 1.181 0.106191 1.24493C0.0301995 1.31971 0.0422615 1.42586 0.104984 1.50185Z" fill="white"/>
</svg>
