<svg width="7" height="5" viewBox="0 0 7 5" fill="none" xmlns="http://www.w3.org/2000/svg">
<path d="M0.233154 4.01364L3.3307 0.256296C3.41875 0.148943 3.5828 0.148943 3.67206 0.256296L6.7696 4.01364C6.88781 4.15718 6.78649 4.3755 6.59953 4.3755H0.40323C0.216267 4.3755 0.113739 4.15838 0.233154 4.01364Z" fill="white"/>
<path d="M0.360668 4.14151C0.436659 4.04984 0.51265 3.95816 0.587435 3.86529C0.77681 3.6349 0.966185 3.40572 1.15677 3.17533C1.40283 2.8774 1.64769 2.57947 1.89376 2.28153C2.14224 1.98119 2.38951 1.67963 2.63799 1.37929C2.83098 1.14528 3.02277 0.912486 3.21577 0.678481C3.29658 0.580778 3.37498 0.480663 3.45821 0.385372C3.46183 0.380547 3.48957 0.355217 3.4751 0.366073C3.45821 0.379341 3.51249 0.350392 3.48837 0.358836C3.47269 0.364867 3.53541 0.358836 3.49319 0.358836C3.52938 0.358836 3.46907 0.357629 3.50526 0.358836C3.50767 0.358836 3.533 0.367279 3.51249 0.360042C3.48957 0.351598 3.51973 0.363661 3.51852 0.363661C3.52094 0.363661 3.54265 0.380547 3.52576 0.367279C3.51008 0.355217 3.53059 0.372104 3.53179 0.374516C3.53541 0.378135 3.53903 0.38296 3.54265 0.386579C3.54868 0.393816 3.55471 0.401053 3.56074 0.40829C3.60175 0.457745 3.64276 0.507199 3.68257 0.556654C3.85144 0.76171 4.02031 0.966765 4.18918 1.17182C4.4268 1.4601 4.66442 1.74839 4.90205 2.03667C5.15414 2.34305 5.40745 2.64943 5.65955 2.9558C5.86943 3.21031 6.07931 3.46482 6.28919 3.71933C6.40016 3.85322 6.50992 3.98832 6.62089 4.12221C6.62572 4.12824 6.63175 4.13668 6.63778 4.14271C6.63899 4.14271 6.60763 4.10291 6.62331 4.12462C6.62693 4.13065 6.63054 4.13789 6.63537 4.14392C6.63296 4.14151 6.62813 4.11497 6.63175 4.13306C6.63296 4.1391 6.63537 4.14633 6.63778 4.15357C6.64622 4.18131 6.64261 4.13065 6.63657 4.1596C6.63537 4.16443 6.63175 4.18614 6.63657 4.16201C6.64381 4.13427 6.63416 4.16804 6.63296 4.17046C6.6221 4.18614 6.63778 4.16081 6.63899 4.15839C6.63537 4.16443 6.63296 4.17046 6.62934 4.17649C6.62572 4.18252 6.6221 4.18734 6.61848 4.19338C6.6221 4.18734 6.62813 4.16925 6.62572 4.18252C6.62451 4.18614 6.61366 4.19337 6.61124 4.19699C6.61607 4.19217 6.62693 4.17649 6.62089 4.18855C6.61848 4.19217 6.60642 4.19579 6.6028 4.1982C6.61366 4.19096 6.62692 4.18855 6.60642 4.19458C6.57626 4.20423 6.62934 4.19699 6.59556 4.19579C6.59436 4.19579 6.59436 4.19579 6.59315 4.19579C6.58833 4.19579 6.58471 4.19579 6.57988 4.19579C6.563 4.19579 6.5449 4.19579 6.52802 4.19579C6.35191 4.19579 6.1746 4.19579 5.99849 4.19579C5.69453 4.19579 5.38935 4.19579 5.08539 4.19579C4.70423 4.19579 4.32427 4.19579 3.94311 4.19579C3.54265 4.19579 3.14098 4.19579 2.74052 4.19579C2.37383 4.19579 2.00835 4.19579 1.64166 4.19579C1.36544 4.19579 1.08801 4.19579 0.81179 4.19579C0.679107 4.19579 0.54763 4.19699 0.414947 4.19579C0.411329 4.19579 0.40771 4.19579 0.404091 4.19579C0.402885 4.19579 0.402885 4.19579 0.401679 4.19579C0.399267 4.19579 0.401679 4.19458 0.393235 4.19579C0.373936 4.1982 0.399267 4.19699 0.404091 4.1982C0.400473 4.19699 0.384792 4.19579 0.383586 4.19338C0.379967 4.18614 0.383586 4.19217 0.394442 4.19941C0.390823 4.19699 0.378761 4.19338 0.376349 4.18976C0.370318 4.17769 0.381173 4.19337 0.385998 4.1982C0.383586 4.19458 0.37273 4.18855 0.371524 4.18373C0.369111 4.17046 0.375142 4.18855 0.378761 4.19458C0.375142 4.18855 0.371524 4.18373 0.367905 4.17769C0.364287 4.17166 0.361874 4.16563 0.358255 4.1596C0.359462 4.16201 0.375142 4.18734 0.364287 4.17166C0.360668 4.16684 0.361874 4.15839 0.359462 4.15236C0.359462 4.15236 0.36308 4.18855 0.361874 4.16684C0.361874 4.16081 0.36308 4.15236 0.361874 4.14633C0.36308 4.14995 0.352224 4.1789 0.359462 4.16081C0.361874 4.15357 0.375142 4.11738 0.365493 4.13548C0.355843 4.15478 0.383586 4.11135 0.387204 4.10653C0.447515 4.02933 0.399267 3.90388 0.322069 3.85925C0.229191 3.80498 0.133901 3.84599 0.0747963 3.92439C-0.0241129 4.05345 -0.0241128 4.25007 0.0699715 4.38154C0.149581 4.49252 0.266584 4.55403 0.404091 4.55765C0.437865 4.55886 0.470433 4.55765 0.504207 4.55765C0.704438 4.55765 0.904668 4.55765 1.10369 4.55765C1.43058 4.55765 1.75746 4.55765 2.08313 4.55765C2.47877 4.55765 2.87441 4.55765 3.27004 4.55765C3.67895 4.55765 4.08665 4.55765 4.49555 4.55765C4.8538 4.55765 5.21325 4.55765 5.57149 4.55765C5.8248 4.55765 6.07689 4.55765 6.3302 4.55765C6.45082 4.55765 6.60763 4.57816 6.72463 4.53714C6.88747 4.47925 7.00567 4.32244 6.99964 4.14633C6.99603 4.04381 6.95501 3.96058 6.89229 3.88338C6.86214 3.84599 6.83077 3.80859 6.79941 3.7712C6.64019 3.57821 6.48218 3.38521 6.32296 3.19343C6.08292 2.90273 5.84289 2.61083 5.60285 2.32013C5.34472 2.00652 5.08539 1.6929 4.82726 1.37929C4.60894 1.11513 4.39061 0.849763 4.17229 0.585603C4.05408 0.442064 3.93587 0.298525 3.81766 0.156193C3.70428 0.0186847 3.51732 -0.0404195 3.34845 0.0295406C3.26522 0.0645207 3.21094 0.120006 3.15666 0.186348C3.02157 0.350392 2.88647 0.514437 2.75137 0.678481C2.52461 0.953497 2.29663 1.22972 2.06987 1.50473C1.80933 1.82076 1.54878 2.13679 1.28824 2.45282C1.05665 2.73386 0.825059 3.0137 0.594673 3.29475C0.451134 3.46844 0.307595 3.64214 0.165262 3.81583C0.144756 3.83996 0.125457 3.86408 0.104951 3.8882C0.0434348 3.96299 0.0313727 4.07034 0.104951 4.14392C0.168881 4.20544 0.297945 4.2175 0.360668 4.14151Z" fill="white"/>
</svg>
